<?xml version="1.0" encoding="iso-8859-1"?>
<!-- Generator: Adobe Illustrator 19.0.0, SVG Export Plug-In . SVG Version: 6.00 Build 0)  -->
<svg version="1.1" id="Layer_1" xmlns="http://www.w3.org/2000/svg" xmlns:xlink="http://www.w3.org/1999/xlink" x="0px" y="0px"
	 viewBox="0 0 480 480" style="enable-background:new 0 0 480 480;" xml:space="preserve">
<path style="fill:#66CEDB;" d="M8,256.344l131.632,76l52-90.064l90.064,52L196.88,365.4l129.816,74.944
	c15.304,8.84,34.88,3.592,43.712-11.712l72-124.704L96,103.92L8,256.344z"/>
<rect x="253.201" y="-23.778" transform="matrix(-0.5 0.866 -0.866 -0.5 580.4114 17.34)" style="fill:#34495E;" width="63.999" height="399.991"/>
<g>
	<polygon style="fill:#00BFC8;" points="191.632,242.28 123.632,360.056 172.136,388.056 281.704,294.28 	"/>
	<polygon style="fill:#00BFC8;" points="325.64,162.6 340.136,97.072 291.632,69.072 259.632,124.496 	"/>
	<polygon style="fill:#00BFC8;" points="128,48.496 156,0 197.568,24 197.28,88.496 	"/>
</g>
<g>
	
		<rect x="337.749" y="315.871" transform="matrix(-0.866 -0.5 0.5 -0.866 536.946 815.6199)" style="fill:#34495E;" width="79.998" height="39.999"/>
	<rect x="152" y="464" style="fill:#34495E;" width="328" height="16"/>
	<rect x="120" y="464" style="fill:#34495E;" width="16" height="16"/>
	<rect x="88" y="464" style="fill:#34495E;" width="16" height="16"/>
	<rect y="464" style="fill:#34495E;" width="72" height="16"/>
</g>
<g>
	
		<rect x="131.711" y="84.199" transform="matrix(-0.4999 0.8661 -0.8661 -0.4999 289.4045 17.2864)" style="fill:#FFFFFF;" width="16" height="16"/>
	
		<rect x="159.414" y="100.224" transform="matrix(-0.5001 0.866 -0.866 -0.5001 344.8548 17.3715)" style="fill:#FFFFFF;" width="15.999" height="15.991"/>
	
		<rect x="187.133" y="116.201" transform="matrix(-0.4999 0.8661 -0.8661 -0.4999 400.2476 17.286)" style="fill:#FFFFFF;" width="16" height="16"/>
</g>
<g>
</g>
<g>
</g>
<g>
</g>
<g>
</g>
<g>
</g>
<g>
</g>
<g>
</g>
<g>
</g>
<g>
</g>
<g>
</g>
<g>
</g>
<g>
</g>
<g>
</g>
<g>
</g>
<g>
</g>
</svg>
